#!OML:ASF H:\BabyWalks\Project 1\Capture day 1\Session 1\baby.ASF
:FULLY-SPECIFIED
:DEGREES
778
root 35.862 17.5222 -5.66036 -174.319 78.0175 -181.769
lowerback 18.0499 -2.03885 2.99685
upperback 5.20534 -1.57166 2.85955
thorax -4.51884 -0.618799 1.66234
lowerneck -1.21496 -2.74534 3.13578
upperneck -8.05793 -3.9176 -6.01917
head -2.57125 -1.83083 -2.42776
rclavicle -1.98785e-014 3.49861e-014
rhumerus -43.9383 6.66562 -77.6977
rradius 55.2251
rwrist -4.39822
rhand -11.9179 -16.4864
rfingers 7.12502
rthumb 14.1361 -45.9855
lclavicle -1.98785e-014 3.49861e-014
lhumerus -43.5218 -4.87698 80.9408
lradius 56.4683
lwrist 1.08852
lhand 0.909299 9.69215
lfingers 7.12502
lthumb 26.461 37.8648
rfemur -24.842 5.67099 21.9101
rtibia 37.8089
rfoot -17.8927 -7.36798
rtoes 6.05278
lfemur 16.9309 -3.38778 -12.969
ltibia -2.8625e-014
lfoot -12.9855 2.61547
ltoes -23.6499
779
root 35.8574 17.5216 -5.66265 -174.34 77.995 -181.783
lowerback 18.0397 -2.03224 2.98714
upperback 5.20512 -1.56527 2.86162
thorax -4.51344 -0.615673 1.66833
lowerneck -1.2203 -2.75035 3.13202
upperneck -8.05521 -3.92342 -6.00413
head -2.56909 -1.83416 -2.42189
rclavicle -5.84427e-014 2.78299e-014
rhumerus -43.9812 6.71051 -77.8301
rradius 55.1776
rwrist -4.34003
rhand -11.7836 -16.43
rfingers 7.12502
rthumb 14.2655 -45.92
lclavicle -5.84427e-014 2.78299e-014
lhumerus -43.5115 -4.7631 80.7882
lradius 56.3426
lwrist 1.05797
lhand 0.864278 9.74344
lfingers 7.12502
lthumb 26.4179 37.9226
rfemur -24.8683 5.6821 21.8933
rtibia 37.8485
rfoot -17.8918 -7.4089
rtoes 6.05504
lfemur 16.9289 -3.40375 -13.0023
ltibia -6.67916e-014
lfoot -13.0725 2.71654
ltoes -23.4894
780
root 35.8526 17.5209 -5.66477 -174.37 77.9674 -181.806
lowerback 18.0278 -2.02714 2.97729
upperback 5.20586 -1.56092 2.86394
thorax -4.50605 -0.613504 1.67503
lowerneck -1.22046 -2.75272 3.12871
upperneck -8.05677 -3.92582 -5.99018
head -2.56916 -1.83563 -2.41652
rclavicle 9.14409e-015 1.43125e-014
rhumerus -44.0226 6.74963 -77.9557
rradius 55.1198
rwrist -4.26968
rhand -11.6594 -16.3745
rfingers 7.12502
rthumb 14.3852 -45.856
lclavicle 9.14409e-015 1.43125e-014
lhumerus -43.4986 -4.65123 80.6396
lradius 56.235
lwrist 1.03051
lhand 0.815946 9.7918
lfingers 7.12502
lthumb 26.3717 37.9779
rfemur -24.8952 5.68493 21.8753
rtibia 37.8906
rfoot -17.8914 -7.44619
rtoes 6.05151
lfemur 16.9262 -3.42501 -13.037
ltibia -3.18055e-015
lfoot -13.1598 2.81857
ltoes -23.3285
781
root 35.8477 17.5203 -5.66674 -174.415 77.9349 -181.842
lowerback 18.0158 -2.02328 2.96586
upperback 5.20732 -1.5584 2.86651
thorax -4.49781 -0.612191 1.68326
lowerneck -1.2192 -2.7556 3.12868
upperneck -8.05894 -3.92927 -5.98257
head -2.57006 -1.8375 -2.41387
rclavicle 7.95139e-015 -4.53229e-014
rhumerus -44.0635 6.78185 -78.0737
rradius 55.0541
rwrist -4.18655
rhand -11.5447 -16.3265
rfingers 7.12502
rthumb 14.4957 -45.8002
lclavicle 7.95139e-015 -4.53229e-014
lhumerus -43.4843 -4.54314 80.4964
lradius 56.1447
lwrist 1.00553
lhand 0.768688 9.83253
lfingers 7.12502
lthumb 26.3264 38.0254
rfemur -24.9217 5.68098 21.855
rtibia 37.9395
rfoot -17.8958 -7.47974
rtoes 6.0541
lfemur 16.9249 -3.45168 -13.0744
ltibia -5.08889e-014
lfoot -13.2483 2.92125
ltoes -23.1686
782
root 35.8425 17.5191 -5.66856 -174.463 77.8983 -181.88
lowerback 18.0035 -2.02059 2.95434
upperback 5.20867 -1.55733 2.87007
thorax -4.48947 -0.611577 1.6929
lowerneck -1.21218 -2.75711 3.13021
upperneck -8.06426 -3.93113 -5.97859
head -2.57314 -1.8384 -2.41273
rclavicle 1.98785e-015 4.13472e-014
rhumerus -44.1039 6.80909 -78.1838
rradius 54.9825
rwrist -4.09125
rhand -11.4376 -16.2853
rfingers 7.12502
rthumb 14.5989 -45.7515
lclavicle 1.98785e-015 4.13472e-014
lhumerus -43.4712 -4.43992 80.3595
lradius 56.0761
lwrist 0.985827
lhand 0.718619 9.87399
lfingers 7.12502
lthumb 26.2785 38.074
rfemur -24.9546 5.6533 21.8371
rtibia 37.9975
rfoot -17.9017 -7.49637
rtoes 6.04183
lfemur 16.9227 -3.48237 -13.1117
ltibia 3.18055e-014
lfoot -13.3344 3.02401
ltoes -23.0236
783
root 35.8369 17.5172 -5.67028 -174.529 77.8582 -181.936
lowerback 17.9907 -2.01983 2.93803
upperback 5.21061 -1.5596 2.87435
thorax -4.48003 -0.612565 1.70671
lowerneck -1.19687 -2.75636 3.13445
upperneck -8.07516 -3.93036 -5.98019
head -2.57971 -1.8377 -2.41399
rclavicle 3.57812e-015 -1.82882e-014
rhumerus -44.1427 6.83597 -78.2866
rradius 54.9068
rwrist -3.98646
rhand -11.3357 -16.2497
rfingers 7.12502
rthumb 14.6971 -45.7087
lclavicle 3.57812e-015 -1.82882e-014
lhumerus -43.4596 -4.33596 80.2289
lradius 56.027
lwrist 0.969944
lhand 0.66365 9.91027
lfingers 7.12502
lthumb 26.2259 38.1181
rfemur -24.9925 5.59037 21.819
rtibia 38.0641
rfoot -17.9099 -7.48383
rtoes 6.01888
lfemur 16.9214 -3.51708 -13.153
ltibia 2.8625e-014
lfoot -13.4192 3.12819
ltoes -22.8988
784
root 35.831 17.5149 -5.6718 -174.592 77.814 -181.987
lowerback 17.9784 -2.01979 2.92253
upperback 5.21258 -1.56247 2.88
thorax -4.47085 -0.613824 1.72166
lowerneck -1.17415 -2.7553 3.13667
upperneck -8.08981 -3.92922 -5.9812
head -2.5888 -1.83662 -2.41465
rclavicle -1.59028e-015 3.26007e-014
rhumerus -44.1814 6.85752 -78.3808
rradius 54.8277
rwrist -3.87335
rhand -11.2364 -16.2204
rfingers 7.12502
rthumb 14.7928 -45.6724
lclavicle -1.59028e-015 3.26007e-014
lhumerus -43.4485 -4.24004 80.1072
lradius 55.9965
lwrist 0.959759
lhand 0.605392 9.93546
lfingers 7.12502
lthumb 26.1701 38.1516
rfemur -25.0331 5.51519 21.8038
rtibia 38.1377
rfoot -17.9207 -7.46598
rtoes 5.98158
lfemur 16.9197 -3.55581 -13.1927
ltibia -5.08889e-014
lfoot -13.5035 3.23314
ltoes -22.7841
785
root 35.8249 17.5128 -5.67314 -174.659 77.7663 -182.042
lowerback 17.966 -2.0205 2.90677
upperback 5.21504 -1.56626 2.88667
thorax -4.461 -0.615498 1.73802
lowerneck -1.15386 -2.75413 3.13776
upperneck -8.10296 -3.92797 -5.98348
head -2.59695 -1.83545 -2.41555
rclavicle 1.11319e-014 -6.12257e-014
rhumerus -44.2182 6.87739 -78.4664
rradius 54.7465
rwrist -3.75718
rhand -11.1473 -16.1959
rfingers 7.12502
rthumb 14.8786 -45.6417
lclavicle 1.11319e-014 -6.12257e-014
lhumerus -43.4379 -4.15376 79.9951
lradius 55.9892
lwrist 0.957249
lhand 0.546706 9.9559
lfingers 7.12502
lthumb 26.1139 38.1804
rfemur -25.0751 5.44358 21.7872
rtibia 38.215
rfoot -17.9352 -7.4531
rtoes 5.94549
lfemur 16.9166 -3.59818 -13.2332
ltibia 1.59028e-014
lfoot -13.5868 3.33989
ltoes -22.6846
786
root 35.8187 17.5104 -5.67424 -174.718 77.7165 -182.09
lowerback 17.9538 -2.02071 2.89331
upperback 5.21668 -1.56893 2.89389
thorax -4.45219 -0.616647 1.75345
lowerneck -1.13725 -2.75252 3.1367
upperneck -8.11123 -3.92592 -5.98392
head -2.60263 -1.83402 -2.41546
rclavicle -1.66979e-014 -9.54166e-014
rhumerus -44.2567 6.89534 -78.5444
rradius 54.6666
rwrist -3.64009
rhand -11.0538 -16.1842
rfingers 7.12502
rthumb 14.9687 -45.6232
lclavicle -1.66979e-014 -9.54166e-014
lhumerus -43.4271 -4.08149 79.8931
lradius 56.0008
lwrist 0.963978
lhand 0.484426 9.96502
lfingers 7.12502
lthumb 26.0543 38.1983
rfemur -25.1193 5.3726 21.7726
rtibia 38.293
rfoot -17.9502 -7.44378
rtoes 5.9002
lfemur 16.9106 -3.64238 -13.2717
ltibia -3.18055e-015
lfoot -13.6711 3.4496
ltoes -22.5898
787
root 35.8124 17.5078 -5.67508 -174.762 77.6651 -182.123
lowerback 17.9401 -2.02121 2.88047
upperback 5.21925 -1.57175 2.90301
thorax -4.44159 -0.617828 1.77051
lowerneck -1.12321 -2.74864 3.13463
upperneck -8.11838 -3.92076 -5.98358
head -2.60724 -1.83107 -2.415
rclavicle 1.47101e-014 -4.45278e-014
rhumerus -44.2928 6.91816 -78.6161
rradius 54.584
rwrist -3.52547
rhand -10.965 -16.1747
rfingers 7.12502
rthumb 15.0542 -45.6074
lclavicle 1.47101e-014 -4.45278e-014
lhumerus -43.4134 -4.01962 79.8006
lradius 56.028
lwrist 0.978992
lhand 0.422207 9.96554
lfingers 7.12502
lthumb 25.9947 38.2076
rfemur -25.1653 5.29584 21.7625
rtibia 38.3721
rfoot -17.9659 -7.42933
rtoes 5.85715
lfemur 16.9035 -3.68806 -13.306
ltibia 2.22639e-014
lfoot -13.7605 3.56189
ltoes -22.4718
788
root 35.8059 17.5049 -5.67573 -174.796 77.6135 -182.146
lowerback 17.9296 -2.02125 2.87175
upperback 5.22092 -1.57304 2.91203
thorax -4.43377 -0.618273 1.78493
lowerneck -1.11782 -2.74551 3.12794
upperneck -8.11844 -3.91618 -5.97826
head -2.60764 -1.82864 -2.41204
rclavicle -1.19271e-014 -3.89618e-014
rhumerus -44.3298 6.94233 -78.681
rradius 54.5022
rwrist -3.41634
rhand -10.8725 -16.1704
rfingers 7.12502
rthumb 15.1433 -45.5963
lclavicle -1.19271e-014 -3.89618e-014
lhumerus -43.3994 -3.97389 79.7183
lradius 56.0733
lwrist 1.00245
lhand 0.364651 9.96146
lfingers 7.12502
lthumb 25.9396 38.2116
rfemur -25.2121 5.2193 21.7554
rtibia 38.4524
rfoot -17.9826 -7.41512
rtoes 5.80972
lfemur 16.8962 -3.73391 -13.3375
ltibia 9.54166e-015
lfoot -13.854 3.67705
ltoes -22.3446
789
root 35.799 17.5016 -5.67613 -174.812 77.5629 -182.149
lowerback 17.9226 -2.02008 2.86549
upperback 5.22227 -1.57193 2.92278
thorax -4.42814 -0.61752 1.7994
lowerneck -1.11446 -2.7431 3.1171
upperneck -8.11816 -3.91242 -5.97006
head -2.60737 -1.8266 -2.40733
rclavicle -1.43125e-014 2.14687e-014
rhumerus -44.3654 6.96629 -78.7362
rradius 54.4216
rwrist -3.31192
rhand -10.7744 -16.1714
rfingers 7.12502
rthumb 15.2378 -45.5902
lclavicle -1.43125e-014 2.14687e-014
lhumerus -43.3836 -3.94515 79.6491
lradius 56.134
lwrist 1.03419
lhand 0.307812 9.95385
lfingers 7.12502
lthumb 25.8852 38.2119
rfemur -25.2606 5.15067 21.7528
rtibia 38.5345
rfoot -18.0034 -7.4044
rtoes 5.79429
lfemur 16.8895 -3.7788 -13.364
ltibia -9.54166e-015
lfoot -13.9489 3.79418
ltoes -22.2191
790
root 35.7919 17.498 -5.67622 -174.792 77.5115 -182.115
lowerback 17.9172 -2.01875 2.86655
upperback 5.22294 -1.56904 2.93534
thorax -4.42427 -0.615891 1.81135
lowerneck -1.10908 -2.74138 3.10416
upperneck -8.12049 -3.90942 -5.95785
head -2.60821 -1.82491 -2.40087
rclavicle 6.36111e-015 7.15625e-015
rhumerus -44.4015 6.99246 -78.7845
rradius 54.342
rwrist -3.21942
rhand -10.6772 -16.1703
rfingers 7.12502
rthumb 15.3314 -45.582
lclavicle 6.36111e-015 7.15625e-015
lhumerus -43.3681 -3.93397 79.5917
lradius 56.2119
lwrist 1.07439
lhand 0.2508 9.94525
lfingers 7.12502
lthumb 25.8306 38.2113
rfemur -25.3102 5.07848 21.7609
rtibia 38.6164
rfoot -18.027 -7.39103
rtoes 5.79056
lfemur 16.8816 -3.82402 -13.3807
ltibia -3.18055e-014
lfoot -14.0458 3.91404
ltoes -22.0894
791
root 35.7844 17.4943 -5.67593 -174.776 77.4537 -182.087
lowerback 17.9158 -2.01879 2.86889
upperback 5.22113 -1.56754 2.94701
thorax -4.42519 -0.615003 1.8221
lowerneck -1.10266 -2.7393 3.0886
upperneck -8.12439 -3.90576 -5.94204
head -2.60954 -1.82288 -2.39274
rclavicle -2.94201e-014 -6.36111e-014
rhumerus -44.4388 7.01447 -78.8246
rradius 54.2656
rwrist -3.13689
rhand -10.5792 -16.1668
rfingers 7.12502
rthumb 15.4258 -45.5712
lclavicle -2.94201e-014 -6.36111e-014
lhumerus -43.3529 -3.94045 79.5458
lradius 56.3059
lwrist 1.12144
lhand 0.199942 9.93714
lfingers 7.12502
lthumb 25.7819 38.2102
rfemur -25.361 5.0042 21.7683
rtibia 38.6982
rfoot -18.0555 -7.37942
rtoes 5.81852
lfemur 16.8695 -3.87585 -13.3972
ltibia -4.77083e-014
lfoot -14.147 4.03617
ltoes -21.9357
